<mxfile host="app.diagrams.net" modified="2023-08-30T15:38:02.615Z" agent="Mozilla/5.0 (Macintosh; Intel Mac OS X 10_15_7) AppleWebKit/537.36 (KHTML, like Gecko) Chrome/116.0.0.0 Safari/537.36" etag="dBYpe0f411sw7oSG0OEi" version="21.6.9" type="github" pages="6">
  <diagram name="Utenti" id="PkGiYq5VtfdqSXgKN5m3">
    <mxGraphModel dx="1434" dy="790" grid="0" gridSize="10" guides="1" tooltips="1" connect="1" arrows="1" fold="1" page="1" pageScale="1" pageWidth="827" pageHeight="1169" math="0" shadow="0">
      <root>
        <mxCell id="0" />
        <mxCell id="1" parent="0" />
        <mxCell id="iNKSf5CTAuBOQY4kev2J-1" value="Utente MoviePlanet&amp;nbsp;" style="shape=umlActor;verticalLabelPosition=bottom;verticalAlign=top;html=1;outlineConnect=0;" parent="1" vertex="1">
          <mxGeometry x="399" y="80" width="30" height="60" as="geometry" />
        </mxCell>
        <mxCell id="iNKSf5CTAuBOQY4kev2J-10" style="edgeStyle=orthogonalEdgeStyle;rounded=0;orthogonalLoop=1;jettySize=auto;html=1;endArrow=block;endFill=0;" parent="1" edge="1">
          <mxGeometry relative="1" as="geometry">
            <mxPoint x="398" y="170" as="targetPoint" />
            <mxPoint x="290" y="230" as="sourcePoint" />
            <Array as="points">
              <mxPoint x="399" y="230" />
            </Array>
          </mxGeometry>
        </mxCell>
        <mxCell id="iNKSf5CTAuBOQY4kev2J-2" value="Utente Esterno" style="shape=umlActor;verticalLabelPosition=bottom;verticalAlign=top;html=1;outlineConnect=0;" parent="1" vertex="1">
          <mxGeometry x="260" y="200" width="30" height="60" as="geometry" />
        </mxCell>
        <mxCell id="iNKSf5CTAuBOQY4kev2J-11" style="edgeStyle=orthogonalEdgeStyle;rounded=0;orthogonalLoop=1;jettySize=auto;html=1;endArrow=block;endFill=0;" parent="1" source="iNKSf5CTAuBOQY4kev2J-3" edge="1">
          <mxGeometry relative="1" as="geometry">
            <mxPoint x="440" y="170" as="targetPoint" />
          </mxGeometry>
        </mxCell>
        <mxCell id="iNKSf5CTAuBOQY4kev2J-3" value="Utente Interno Registrato" style="shape=umlActor;verticalLabelPosition=bottom;verticalAlign=top;html=1;outlineConnect=0;" parent="1" vertex="1">
          <mxGeometry x="540" y="200" width="30" height="60" as="geometry" />
        </mxCell>
        <mxCell id="iNKSf5CTAuBOQY4kev2J-20" style="edgeStyle=orthogonalEdgeStyle;rounded=0;orthogonalLoop=1;jettySize=auto;html=1;endArrow=block;endFill=0;" parent="1" source="iNKSf5CTAuBOQY4kev2J-12" edge="1">
          <mxGeometry relative="1" as="geometry">
            <mxPoint x="270" y="290" as="targetPoint" />
          </mxGeometry>
        </mxCell>
        <mxCell id="iNKSf5CTAuBOQY4kev2J-12" value="Visitatore" style="shape=umlActor;verticalLabelPosition=bottom;verticalAlign=top;html=1;outlineConnect=0;" parent="1" vertex="1">
          <mxGeometry x="170" y="340" width="30" height="60" as="geometry" />
        </mxCell>
        <mxCell id="iNKSf5CTAuBOQY4kev2J-21" style="edgeStyle=orthogonalEdgeStyle;rounded=0;orthogonalLoop=1;jettySize=auto;html=1;endArrow=block;endFill=0;" parent="1" source="iNKSf5CTAuBOQY4kev2J-13" edge="1">
          <mxGeometry relative="1" as="geometry">
            <mxPoint x="290" y="290" as="targetPoint" />
          </mxGeometry>
        </mxCell>
        <mxCell id="iNKSf5CTAuBOQY4kev2J-13" value="Utente Esterno&lt;br&gt;Registrato" style="shape=umlActor;verticalLabelPosition=bottom;verticalAlign=top;html=1;" parent="1" vertex="1">
          <mxGeometry x="350" y="340" width="30" height="60" as="geometry" />
        </mxCell>
        <mxCell id="iNKSf5CTAuBOQY4kev2J-24" style="edgeStyle=orthogonalEdgeStyle;rounded=0;orthogonalLoop=1;jettySize=auto;html=1;endArrow=block;endFill=0;" parent="1" edge="1">
          <mxGeometry relative="1" as="geometry">
            <mxPoint x="539.5" y="290" as="targetPoint" />
            <mxPoint x="499.5" y="370" as="sourcePoint" />
          </mxGeometry>
        </mxCell>
        <mxCell id="iNKSf5CTAuBOQY4kev2J-14" value="Amministratore" style="shape=umlActor;verticalLabelPosition=bottom;verticalAlign=top;html=1;outlineConnect=0;" parent="1" vertex="1">
          <mxGeometry x="470" y="340" width="30" height="60" as="geometry" />
        </mxCell>
        <mxCell id="iNKSf5CTAuBOQY4kev2J-26" style="edgeStyle=orthogonalEdgeStyle;rounded=0;orthogonalLoop=1;jettySize=auto;html=1;endArrow=block;endFill=0;" parent="1" edge="1">
          <mxGeometry relative="1" as="geometry">
            <mxPoint x="565" y="290" as="targetPoint" />
            <mxPoint x="610" y="370" as="sourcePoint" />
          </mxGeometry>
        </mxCell>
        <mxCell id="iNKSf5CTAuBOQY4kev2J-15" value="Moderatore" style="shape=umlActor;verticalLabelPosition=bottom;verticalAlign=top;html=1;outlineConnect=0;" parent="1" vertex="1">
          <mxGeometry x="620" y="340" width="30" height="60" as="geometry" />
        </mxCell>
        <mxCell id="iNKSf5CTAuBOQY4kev2J-29" style="edgeStyle=orthogonalEdgeStyle;rounded=0;orthogonalLoop=1;jettySize=auto;html=1;endArrow=block;endFill=0;" parent="1" edge="1">
          <mxGeometry relative="1" as="geometry">
            <mxPoint x="360" y="440" as="targetPoint" />
            <mxPoint x="290" y="520" as="sourcePoint" />
          </mxGeometry>
        </mxCell>
        <mxCell id="iNKSf5CTAuBOQY4kev2J-30" style="edgeStyle=orthogonalEdgeStyle;rounded=0;orthogonalLoop=1;jettySize=auto;html=1;endArrow=block;endFill=0;" parent="1" edge="1">
          <mxGeometry relative="1" as="geometry">
            <mxPoint x="380" y="440" as="targetPoint" />
            <mxPoint x="440" y="520" as="sourcePoint" />
          </mxGeometry>
        </mxCell>
        <mxCell id="iNKSf5CTAuBOQY4kev2J-31" value="Esercente" style="shape=umlActor;verticalLabelPosition=bottom;verticalAlign=top;html=1;" parent="1" vertex="1">
          <mxGeometry x="250" y="490" width="30" height="60" as="geometry" />
        </mxCell>
        <mxCell id="iNKSf5CTAuBOQY4kev2J-32" value="Spettatore" style="shape=umlActor;verticalLabelPosition=bottom;verticalAlign=top;html=1;" parent="1" vertex="1">
          <mxGeometry x="450" y="490" width="30" height="60" as="geometry" />
        </mxCell>
      </root>
    </mxGraphModel>
  </diagram>
  <diagram id="7s-qiYdHXY-v7Th2wd8y" name="Casi d&#39;uso Visitatore">
    <mxGraphModel dx="954" dy="610" grid="0" gridSize="10" guides="1" tooltips="1" connect="1" arrows="1" fold="1" page="1" pageScale="1" pageWidth="827" pageHeight="1169" math="0" shadow="0">
      <root>
        <mxCell id="0" />
        <mxCell id="1" parent="0" />
        <mxCell id="c4I3WfQ7DMTTl3fPkdtR-1" value="Visitatore" style="shape=umlActor;verticalLabelPosition=bottom;verticalAlign=top;html=1;outlineConnect=0;" vertex="1" parent="1">
          <mxGeometry x="160" y="300" width="30" height="60" as="geometry" />
        </mxCell>
        <mxCell id="c4I3WfQ7DMTTl3fPkdtR-3" value="Registrazione" style="ellipse;whiteSpace=wrap;html=1;" vertex="1" parent="1">
          <mxGeometry x="320" y="200" width="140" height="70" as="geometry" />
        </mxCell>
        <mxCell id="c4I3WfQ7DMTTl3fPkdtR-4" value="Login" style="ellipse;whiteSpace=wrap;html=1;" vertex="1" parent="1">
          <mxGeometry x="320" y="303" width="140" height="70" as="geometry" />
        </mxCell>
        <mxCell id="c4I3WfQ7DMTTl3fPkdtR-5" value="Visualizza programmazione" style="ellipse;whiteSpace=wrap;html=1;" vertex="1" parent="1">
          <mxGeometry x="320" y="421" width="140" height="70" as="geometry" />
        </mxCell>
        <mxCell id="c4I3WfQ7DMTTl3fPkdtR-6" value="Visualizza multisale" style="ellipse;whiteSpace=wrap;html=1;" vertex="1" parent="1">
          <mxGeometry x="166" y="515" width="140" height="70" as="geometry" />
        </mxCell>
        <mxCell id="c4I3WfQ7DMTTl3fPkdtR-8" value="Registrazione come spettatore" style="ellipse;whiteSpace=wrap;html=1;" vertex="1" parent="1">
          <mxGeometry x="520" y="150" width="140" height="70" as="geometry" />
        </mxCell>
        <mxCell id="c4I3WfQ7DMTTl3fPkdtR-9" value="Registrazione come esercente" style="ellipse;whiteSpace=wrap;html=1;" vertex="1" parent="1">
          <mxGeometry x="520" y="260" width="140" height="70" as="geometry" />
        </mxCell>
        <mxCell id="c4I3WfQ7DMTTl3fPkdtR-10" value="" style="endArrow=block;html=1;rounded=0;exitX=0;exitY=0.5;exitDx=0;exitDy=0;entryX=1;entryY=0;entryDx=0;entryDy=0;endFill=0;" edge="1" parent="1" source="c4I3WfQ7DMTTl3fPkdtR-8" target="c4I3WfQ7DMTTl3fPkdtR-3">
          <mxGeometry width="50" height="50" relative="1" as="geometry">
            <mxPoint x="390" y="430" as="sourcePoint" />
            <mxPoint x="440" y="380" as="targetPoint" />
          </mxGeometry>
        </mxCell>
        <mxCell id="c4I3WfQ7DMTTl3fPkdtR-11" value="" style="endArrow=block;html=1;rounded=0;exitX=0;exitY=0.5;exitDx=0;exitDy=0;entryX=1;entryY=1;entryDx=0;entryDy=0;endFill=0;" edge="1" parent="1" source="c4I3WfQ7DMTTl3fPkdtR-9" target="c4I3WfQ7DMTTl3fPkdtR-3">
          <mxGeometry width="50" height="50" relative="1" as="geometry">
            <mxPoint x="390" y="430" as="sourcePoint" />
            <mxPoint x="440" y="380" as="targetPoint" />
          </mxGeometry>
        </mxCell>
        <mxCell id="c4I3WfQ7DMTTl3fPkdtR-12" value="" style="endArrow=none;html=1;rounded=0;entryX=0.007;entryY=0.686;entryDx=0;entryDy=0;entryPerimeter=0;" edge="1" parent="1" target="c4I3WfQ7DMTTl3fPkdtR-3">
          <mxGeometry width="50" height="50" relative="1" as="geometry">
            <mxPoint x="200" y="300" as="sourcePoint" />
            <mxPoint x="310" y="230" as="targetPoint" />
          </mxGeometry>
        </mxCell>
        <mxCell id="c4I3WfQ7DMTTl3fPkdtR-13" value="" style="endArrow=none;html=1;rounded=0;" edge="1" parent="1" target="c4I3WfQ7DMTTl3fPkdtR-4">
          <mxGeometry width="50" height="50" relative="1" as="geometry">
            <mxPoint x="200" y="340" as="sourcePoint" />
            <mxPoint x="320" y="340" as="targetPoint" />
          </mxGeometry>
        </mxCell>
        <mxCell id="c4I3WfQ7DMTTl3fPkdtR-14" value="" style="endArrow=none;html=1;rounded=0;" edge="1" parent="1" target="c4I3WfQ7DMTTl3fPkdtR-5">
          <mxGeometry width="50" height="50" relative="1" as="geometry">
            <mxPoint x="200" y="380" as="sourcePoint" />
            <mxPoint x="320" y="380" as="targetPoint" />
          </mxGeometry>
        </mxCell>
        <mxCell id="c4I3WfQ7DMTTl3fPkdtR-15" value="" style="endArrow=none;html=1;rounded=0;entryX=0.457;entryY=-0.029;entryDx=0;entryDy=0;entryPerimeter=0;" edge="1" parent="1" target="c4I3WfQ7DMTTl3fPkdtR-6">
          <mxGeometry width="50" height="50" relative="1" as="geometry">
            <mxPoint x="180" y="390" as="sourcePoint" />
            <mxPoint x="180" y="500" as="targetPoint" />
          </mxGeometry>
        </mxCell>
        <mxCell id="c4I3WfQ7DMTTl3fPkdtR-16" value="" style="endArrow=classic;html=1;rounded=0;exitX=0.1;exitY=0.843;exitDx=0;exitDy=0;exitPerimeter=0;dashed=1;entryX=0.907;entryY=0.229;entryDx=0;entryDy=0;entryPerimeter=0;" edge="1" parent="1" source="c4I3WfQ7DMTTl3fPkdtR-5" target="c4I3WfQ7DMTTl3fPkdtR-6">
          <mxGeometry width="50" height="50" relative="1" as="geometry">
            <mxPoint x="270" y="430" as="sourcePoint" />
            <mxPoint x="320" y="380" as="targetPoint" />
          </mxGeometry>
        </mxCell>
        <mxCell id="c4I3WfQ7DMTTl3fPkdtR-17" value="include" style="edgeLabel;html=1;align=center;verticalAlign=middle;resizable=0;points=[];" vertex="1" connectable="0" parent="c4I3WfQ7DMTTl3fPkdtR-16">
          <mxGeometry x="0.4754" y="-2" relative="1" as="geometry">
            <mxPoint x="24" y="-6" as="offset" />
          </mxGeometry>
        </mxCell>
        <mxCell id="c4I3WfQ7DMTTl3fPkdtR-18" value="Visualizza valutazioni" style="ellipse;whiteSpace=wrap;html=1;" vertex="1" parent="1">
          <mxGeometry x="26" y="424" width="140" height="70" as="geometry" />
        </mxCell>
        <mxCell id="c4I3WfQ7DMTTl3fPkdtR-19" value="" style="endArrow=none;html=1;rounded=0;entryX=0.5;entryY=0;entryDx=0;entryDy=0;" edge="1" parent="1" target="c4I3WfQ7DMTTl3fPkdtR-18">
          <mxGeometry width="50" height="50" relative="1" as="geometry">
            <mxPoint x="147" y="374" as="sourcePoint" />
            <mxPoint x="254" y="546" as="targetPoint" />
          </mxGeometry>
        </mxCell>
        <mxCell id="c4I3WfQ7DMTTl3fPkdtR-20" value="" style="endArrow=classic;html=1;rounded=0;exitX=0.5;exitY=1;exitDx=0;exitDy=0;dashed=1;entryX=0.021;entryY=0.343;entryDx=0;entryDy=0;entryPerimeter=0;" edge="1" parent="1" source="c4I3WfQ7DMTTl3fPkdtR-18" target="c4I3WfQ7DMTTl3fPkdtR-6">
          <mxGeometry width="50" height="50" relative="1" as="geometry">
            <mxPoint x="381" y="547" as="sourcePoint" />
            <mxPoint x="330" y="583" as="targetPoint" />
          </mxGeometry>
        </mxCell>
        <mxCell id="c4I3WfQ7DMTTl3fPkdtR-21" value="include" style="edgeLabel;html=1;align=center;verticalAlign=middle;resizable=0;points=[];" vertex="1" connectable="0" parent="c4I3WfQ7DMTTl3fPkdtR-20">
          <mxGeometry x="0.4754" y="-2" relative="1" as="geometry">
            <mxPoint x="-17" y="-24" as="offset" />
          </mxGeometry>
        </mxCell>
        <mxCell id="NVcP9EIT1juRdaAKqA_S-1" value="Scegli città" style="ellipse;whiteSpace=wrap;html=1;" vertex="1" parent="1">
          <mxGeometry x="172" y="639" width="140" height="70" as="geometry" />
        </mxCell>
        <mxCell id="NVcP9EIT1juRdaAKqA_S-2" value="" style="endArrow=classic;html=1;rounded=0;exitX=0.5;exitY=1;exitDx=0;exitDy=0;dashed=1;" edge="1" parent="1" target="NVcP9EIT1juRdaAKqA_S-1">
          <mxGeometry width="50" height="50" relative="1" as="geometry">
            <mxPoint x="233" y="585" as="sourcePoint" />
            <mxPoint x="242" y="631" as="targetPoint" />
          </mxGeometry>
        </mxCell>
        <mxCell id="NVcP9EIT1juRdaAKqA_S-3" value="include" style="edgeLabel;html=1;align=center;verticalAlign=middle;resizable=0;points=[];" vertex="1" connectable="0" parent="NVcP9EIT1juRdaAKqA_S-2">
          <mxGeometry x="0.4754" y="-2" relative="1" as="geometry">
            <mxPoint x="-17" y="-24" as="offset" />
          </mxGeometry>
        </mxCell>
      </root>
    </mxGraphModel>
  </diagram>
  <diagram id="doknaaAPqIdtEWc-2qTH" name="Casi d&#39;uso Spettatore">
    <mxGraphModel dx="1434" dy="790" grid="0" gridSize="10" guides="1" tooltips="1" connect="1" arrows="1" fold="1" page="1" pageScale="1" pageWidth="827" pageHeight="1169" math="0" shadow="0">
      <root>
        <mxCell id="0" />
        <mxCell id="1" parent="0" />
        <mxCell id="gJczOfWIu3KsvHmiIBXs-1" value="Spettatore registrato" style="shape=umlActor;verticalLabelPosition=bottom;verticalAlign=top;html=1;outlineConnect=0;" vertex="1" parent="1">
          <mxGeometry x="220" y="299" width="30" height="60" as="geometry" />
        </mxCell>
        <mxCell id="gJczOfWIu3KsvHmiIBXs-3" value="Logout" style="ellipse;whiteSpace=wrap;html=1;" vertex="1" parent="1">
          <mxGeometry x="352" y="191" width="140" height="70" as="geometry" />
        </mxCell>
        <mxCell id="gJczOfWIu3KsvHmiIBXs-4" value="Inserisci una valutazione" style="ellipse;whiteSpace=wrap;html=1;" vertex="1" parent="1">
          <mxGeometry x="334" y="463" width="140" height="70" as="geometry" />
        </mxCell>
        <mxCell id="gJczOfWIu3KsvHmiIBXs-5" value="Visualizza multisale" style="ellipse;whiteSpace=wrap;html=1;" vertex="1" parent="1">
          <mxGeometry x="116" y="463" width="140" height="70" as="geometry" />
        </mxCell>
        <mxCell id="gJczOfWIu3KsvHmiIBXs-11" value="" style="endArrow=none;html=1;rounded=0;" edge="1" parent="1" target="gJczOfWIu3KsvHmiIBXs-3">
          <mxGeometry width="50" height="50" relative="1" as="geometry">
            <mxPoint x="260" y="339" as="sourcePoint" />
            <mxPoint x="380" y="339" as="targetPoint" />
          </mxGeometry>
        </mxCell>
        <mxCell id="gJczOfWIu3KsvHmiIBXs-12" value="" style="endArrow=none;html=1;rounded=0;" edge="1" parent="1" target="gJczOfWIu3KsvHmiIBXs-4">
          <mxGeometry width="50" height="50" relative="1" as="geometry">
            <mxPoint x="262" y="388" as="sourcePoint" />
            <mxPoint x="380" y="379" as="targetPoint" />
          </mxGeometry>
        </mxCell>
        <mxCell id="gJczOfWIu3KsvHmiIBXs-13" value="" style="endArrow=none;html=1;rounded=0;entryX=0.457;entryY=-0.029;entryDx=0;entryDy=0;entryPerimeter=0;" edge="1" parent="1" target="gJczOfWIu3KsvHmiIBXs-5">
          <mxGeometry width="50" height="50" relative="1" as="geometry">
            <mxPoint x="240" y="389" as="sourcePoint" />
            <mxPoint x="240" y="499" as="targetPoint" />
          </mxGeometry>
        </mxCell>
        <mxCell id="gJczOfWIu3KsvHmiIBXs-14" value="" style="endArrow=classic;html=1;rounded=0;exitX=0;exitY=0.5;exitDx=0;exitDy=0;dashed=1;entryX=1;entryY=0.5;entryDx=0;entryDy=0;" edge="1" parent="1" source="gJczOfWIu3KsvHmiIBXs-4" target="gJczOfWIu3KsvHmiIBXs-5">
          <mxGeometry width="50" height="50" relative="1" as="geometry">
            <mxPoint x="330" y="429" as="sourcePoint" />
            <mxPoint x="380" y="379" as="targetPoint" />
          </mxGeometry>
        </mxCell>
        <mxCell id="gJczOfWIu3KsvHmiIBXs-15" value="include" style="edgeLabel;html=1;align=center;verticalAlign=middle;resizable=0;points=[];" vertex="1" connectable="0" parent="gJczOfWIu3KsvHmiIBXs-14">
          <mxGeometry x="0.4754" y="-2" relative="1" as="geometry">
            <mxPoint x="24" y="-6" as="offset" />
          </mxGeometry>
        </mxCell>
        <mxCell id="u7snYF0GGewI1MaBz9FX-1" value="Modifica una valutazione" style="ellipse;whiteSpace=wrap;html=1;" vertex="1" parent="1">
          <mxGeometry x="419" y="316" width="140" height="70" as="geometry" />
        </mxCell>
        <mxCell id="u7snYF0GGewI1MaBz9FX-2" value="" style="endArrow=none;html=1;rounded=0;entryX=0;entryY=0.5;entryDx=0;entryDy=0;" edge="1" parent="1" target="u7snYF0GGewI1MaBz9FX-1">
          <mxGeometry width="50" height="50" relative="1" as="geometry">
            <mxPoint x="277" y="352" as="sourcePoint" />
            <mxPoint x="397" y="416" as="targetPoint" />
          </mxGeometry>
        </mxCell>
        <mxCell id="ZhhaZIaaCG7rSgg_oc_4-1" value="Scegli città" style="ellipse;whiteSpace=wrap;html=1;" vertex="1" parent="1">
          <mxGeometry x="58" y="585" width="140" height="70" as="geometry" />
        </mxCell>
        <mxCell id="ZhhaZIaaCG7rSgg_oc_4-3" value="" style="endArrow=classic;html=1;rounded=0;exitX=0.371;exitY=0.971;exitDx=0;exitDy=0;dashed=1;entryX=0.5;entryY=0;entryDx=0;entryDy=0;exitPerimeter=0;" edge="1" parent="1" source="gJczOfWIu3KsvHmiIBXs-5" target="ZhhaZIaaCG7rSgg_oc_4-1">
          <mxGeometry width="50" height="50" relative="1" as="geometry">
            <mxPoint x="222" y="577" as="sourcePoint" />
            <mxPoint x="144" y="577" as="targetPoint" />
          </mxGeometry>
        </mxCell>
        <mxCell id="ZhhaZIaaCG7rSgg_oc_4-4" value="include" style="edgeLabel;html=1;align=center;verticalAlign=middle;resizable=0;points=[];" vertex="1" connectable="0" parent="ZhhaZIaaCG7rSgg_oc_4-3">
          <mxGeometry x="0.4754" y="-2" relative="1" as="geometry">
            <mxPoint x="24" y="-6" as="offset" />
          </mxGeometry>
        </mxCell>
        <mxCell id="ZhhaZIaaCG7rSgg_oc_4-5" value="" style="endArrow=classic;html=1;rounded=0;exitX=0.321;exitY=0.986;exitDx=0;exitDy=0;dashed=1;exitPerimeter=0;" edge="1" parent="1" source="u7snYF0GGewI1MaBz9FX-1" target="gJczOfWIu3KsvHmiIBXs-4">
          <mxGeometry width="50" height="50" relative="1" as="geometry">
            <mxPoint x="510" y="451" as="sourcePoint" />
            <mxPoint x="432" y="451" as="targetPoint" />
          </mxGeometry>
        </mxCell>
        <mxCell id="ZhhaZIaaCG7rSgg_oc_4-6" value="include" style="edgeLabel;html=1;align=center;verticalAlign=middle;resizable=0;points=[];" vertex="1" connectable="0" parent="ZhhaZIaaCG7rSgg_oc_4-5">
          <mxGeometry x="0.4754" y="-2" relative="1" as="geometry">
            <mxPoint x="24" y="-6" as="offset" />
          </mxGeometry>
        </mxCell>
      </root>
    </mxGraphModel>
  </diagram>
  <diagram id="PEMxW5zTwB5jdOTWEnQb" name="Casi d&#39;uso Esercente">
    <mxGraphModel dx="1434" dy="790" grid="0" gridSize="10" guides="1" tooltips="1" connect="1" arrows="1" fold="1" page="1" pageScale="1" pageWidth="827" pageHeight="1169" math="0" shadow="0">
      <root>
        <mxCell id="0" />
        <mxCell id="1" parent="0" />
        <mxCell id="6HK8pp4Bltgi8Sxus5dX-2" value="Esercente" style="shape=umlActor;verticalLabelPosition=bottom;verticalAlign=top;html=1;outlineConnect=0;" vertex="1" parent="1">
          <mxGeometry x="220" y="299" width="30" height="60" as="geometry" />
        </mxCell>
        <mxCell id="6HK8pp4Bltgi8Sxus5dX-3" value="Logout" style="ellipse;whiteSpace=wrap;html=1;" vertex="1" parent="1">
          <mxGeometry x="352" y="191" width="140" height="70" as="geometry" />
        </mxCell>
        <mxCell id="6HK8pp4Bltgi8Sxus5dX-4" value="Inserisci programmazione" style="ellipse;whiteSpace=wrap;html=1;" vertex="1" parent="1">
          <mxGeometry x="333" y="442" width="162" height="74" as="geometry" />
        </mxCell>
        <mxCell id="6HK8pp4Bltgi8Sxus5dX-5" value="Scegli tra le multisale di proprietà" style="ellipse;whiteSpace=wrap;html=1;" vertex="1" parent="1">
          <mxGeometry x="229" y="574" width="140" height="70" as="geometry" />
        </mxCell>
        <mxCell id="6HK8pp4Bltgi8Sxus5dX-6" value="" style="endArrow=none;html=1;rounded=0;" edge="1" parent="1" target="6HK8pp4Bltgi8Sxus5dX-3">
          <mxGeometry width="50" height="50" relative="1" as="geometry">
            <mxPoint x="260" y="339" as="sourcePoint" />
            <mxPoint x="380" y="339" as="targetPoint" />
          </mxGeometry>
        </mxCell>
        <mxCell id="6HK8pp4Bltgi8Sxus5dX-7" value="" style="endArrow=none;html=1;rounded=0;" edge="1" parent="1" target="6HK8pp4Bltgi8Sxus5dX-4">
          <mxGeometry width="50" height="50" relative="1" as="geometry">
            <mxPoint x="262" y="388" as="sourcePoint" />
            <mxPoint x="380" y="379" as="targetPoint" />
          </mxGeometry>
        </mxCell>
        <mxCell id="6HK8pp4Bltgi8Sxus5dX-9" value="" style="endArrow=classic;html=1;rounded=0;dashed=1;" edge="1" parent="1" source="6HK8pp4Bltgi8Sxus5dX-4" target="6HK8pp4Bltgi8Sxus5dX-5">
          <mxGeometry width="50" height="50" relative="1" as="geometry">
            <mxPoint x="330" y="429" as="sourcePoint" />
            <mxPoint x="380" y="379" as="targetPoint" />
          </mxGeometry>
        </mxCell>
        <mxCell id="6HK8pp4Bltgi8Sxus5dX-10" value="include" style="edgeLabel;html=1;align=center;verticalAlign=middle;resizable=0;points=[];" vertex="1" connectable="0" parent="6HK8pp4Bltgi8Sxus5dX-9">
          <mxGeometry x="0.4754" y="-2" relative="1" as="geometry">
            <mxPoint x="19" y="-15" as="offset" />
          </mxGeometry>
        </mxCell>
        <mxCell id="6HK8pp4Bltgi8Sxus5dX-19" value="Scegli film" style="ellipse;whiteSpace=wrap;html=1;" vertex="1" parent="1">
          <mxGeometry x="426" y="571" width="140" height="70" as="geometry" />
        </mxCell>
        <mxCell id="6HK8pp4Bltgi8Sxus5dX-20" value="" style="endArrow=classic;html=1;rounded=0;dashed=1;entryX=0.2;entryY=0.143;entryDx=0;entryDy=0;entryPerimeter=0;" edge="1" parent="1" source="6HK8pp4Bltgi8Sxus5dX-4" target="6HK8pp4Bltgi8Sxus5dX-19">
          <mxGeometry width="50" height="50" relative="1" as="geometry">
            <mxPoint x="484" y="517" as="sourcePoint" />
            <mxPoint x="482" y="561" as="targetPoint" />
          </mxGeometry>
        </mxCell>
        <mxCell id="6HK8pp4Bltgi8Sxus5dX-21" value="include" style="edgeLabel;html=1;align=center;verticalAlign=middle;resizable=0;points=[];" vertex="1" connectable="0" parent="6HK8pp4Bltgi8Sxus5dX-20">
          <mxGeometry x="0.4754" y="-2" relative="1" as="geometry">
            <mxPoint x="5" y="-16" as="offset" />
          </mxGeometry>
        </mxCell>
        <mxCell id="6HK8pp4Bltgi8Sxus5dX-22" value="Inserisci multisala" style="ellipse;whiteSpace=wrap;html=1;" vertex="1" parent="1">
          <mxGeometry x="382" y="331" width="140" height="70" as="geometry" />
        </mxCell>
        <mxCell id="6HK8pp4Bltgi8Sxus5dX-23" value="" style="endArrow=none;html=1;rounded=0;entryX=0;entryY=0.5;entryDx=0;entryDy=0;" edge="1" parent="1" target="6HK8pp4Bltgi8Sxus5dX-22">
          <mxGeometry width="50" height="50" relative="1" as="geometry">
            <mxPoint x="274" y="357" as="sourcePoint" />
            <mxPoint x="391" y="264" as="targetPoint" />
          </mxGeometry>
        </mxCell>
        <mxCell id="6HK8pp4Bltgi8Sxus5dX-24" value="Scegli città" style="ellipse;whiteSpace=wrap;html=1;" vertex="1" parent="1">
          <mxGeometry x="596" y="346" width="140" height="70" as="geometry" />
        </mxCell>
        <mxCell id="6HK8pp4Bltgi8Sxus5dX-25" value="" style="endArrow=classic;html=1;rounded=0;exitX=0.993;exitY=0.686;exitDx=0;exitDy=0;dashed=1;entryX=0;entryY=0.5;entryDx=0;entryDy=0;exitPerimeter=0;" edge="1" parent="1" source="6HK8pp4Bltgi8Sxus5dX-22" target="6HK8pp4Bltgi8Sxus5dX-24">
          <mxGeometry width="50" height="50" relative="1" as="geometry">
            <mxPoint x="522" y="370" as="sourcePoint" />
            <mxPoint x="523" y="418" as="targetPoint" />
          </mxGeometry>
        </mxCell>
        <mxCell id="6HK8pp4Bltgi8Sxus5dX-26" value="include" style="edgeLabel;html=1;align=center;verticalAlign=middle;resizable=0;points=[];" vertex="1" connectable="0" parent="6HK8pp4Bltgi8Sxus5dX-25">
          <mxGeometry x="0.4754" y="-2" relative="1" as="geometry">
            <mxPoint x="-24" y="-13" as="offset" />
          </mxGeometry>
        </mxCell>
      </root>
    </mxGraphModel>
  </diagram>
  <diagram id="sZc4cU31cEzh9xNrevGD" name="Casi d&#39;uso Moderatore">
    <mxGraphModel dx="1434" dy="790" grid="0" gridSize="10" guides="1" tooltips="1" connect="1" arrows="1" fold="1" page="1" pageScale="1" pageWidth="827" pageHeight="1169" math="0" shadow="0">
      <root>
        <mxCell id="0" />
        <mxCell id="1" parent="0" />
        <mxCell id="N4-iSHMqB769ldHOEbGF-1" value="Moderatore" style="shape=umlActor;verticalLabelPosition=bottom;verticalAlign=top;html=1;outlineConnect=0;" vertex="1" parent="1">
          <mxGeometry x="274" y="282" width="30" height="60" as="geometry" />
        </mxCell>
        <mxCell id="N4-iSHMqB769ldHOEbGF-2" value="Logout" style="ellipse;whiteSpace=wrap;html=1;" vertex="1" parent="1">
          <mxGeometry x="337" y="184" width="140" height="70" as="geometry" />
        </mxCell>
        <mxCell id="N4-iSHMqB769ldHOEbGF-3" value="Approva valutazione" style="ellipse;whiteSpace=wrap;html=1;" vertex="1" parent="1">
          <mxGeometry x="442" y="290" width="162" height="74" as="geometry" />
        </mxCell>
        <mxCell id="N4-iSHMqB769ldHOEbGF-4" value="Visualizza valutazioni" style="ellipse;whiteSpace=wrap;html=1;" vertex="1" parent="1">
          <mxGeometry x="378" y="468" width="140" height="70" as="geometry" />
        </mxCell>
        <mxCell id="N4-iSHMqB769ldHOEbGF-5" value="" style="endArrow=none;html=1;rounded=0;" edge="1" parent="1" target="N4-iSHMqB769ldHOEbGF-2">
          <mxGeometry width="50" height="50" relative="1" as="geometry">
            <mxPoint x="314" y="322" as="sourcePoint" />
            <mxPoint x="434" y="322" as="targetPoint" />
          </mxGeometry>
        </mxCell>
        <mxCell id="N4-iSHMqB769ldHOEbGF-6" value="" style="endArrow=none;html=1;rounded=0;" edge="1" parent="1" target="N4-iSHMqB769ldHOEbGF-3">
          <mxGeometry width="50" height="50" relative="1" as="geometry">
            <mxPoint x="323" y="338" as="sourcePoint" />
            <mxPoint x="434" y="362" as="targetPoint" />
          </mxGeometry>
        </mxCell>
        <mxCell id="N4-iSHMqB769ldHOEbGF-7" value="" style="endArrow=classic;html=1;rounded=0;dashed=1;exitX=0.5;exitY=1;exitDx=0;exitDy=0;" edge="1" parent="1" source="N4-iSHMqB769ldHOEbGF-3" target="N4-iSHMqB769ldHOEbGF-4">
          <mxGeometry width="50" height="50" relative="1" as="geometry">
            <mxPoint x="468" y="499" as="sourcePoint" />
            <mxPoint x="434" y="362" as="targetPoint" />
          </mxGeometry>
        </mxCell>
        <mxCell id="N4-iSHMqB769ldHOEbGF-8" value="include" style="edgeLabel;html=1;align=center;verticalAlign=middle;resizable=0;points=[];" vertex="1" connectable="0" parent="N4-iSHMqB769ldHOEbGF-7">
          <mxGeometry x="0.4754" y="-2" relative="1" as="geometry">
            <mxPoint x="19" y="-15" as="offset" />
          </mxGeometry>
        </mxCell>
        <mxCell id="N4-iSHMqB769ldHOEbGF-17" value="Elimina valutazione" style="ellipse;whiteSpace=wrap;html=1;" vertex="1" parent="1">
          <mxGeometry x="142" y="419" width="162" height="74" as="geometry" />
        </mxCell>
        <mxCell id="N4-iSHMqB769ldHOEbGF-18" value="" style="endArrow=classic;html=1;rounded=0;dashed=1;exitX=1;exitY=1;exitDx=0;exitDy=0;entryX=0.007;entryY=0.414;entryDx=0;entryDy=0;entryPerimeter=0;" edge="1" parent="1" source="N4-iSHMqB769ldHOEbGF-17" target="N4-iSHMqB769ldHOEbGF-4">
          <mxGeometry width="50" height="50" relative="1" as="geometry">
            <mxPoint x="478" y="509" as="sourcePoint" />
            <mxPoint x="478" y="564" as="targetPoint" />
          </mxGeometry>
        </mxCell>
        <mxCell id="N4-iSHMqB769ldHOEbGF-19" value="include" style="edgeLabel;html=1;align=center;verticalAlign=middle;resizable=0;points=[];" vertex="1" connectable="0" parent="N4-iSHMqB769ldHOEbGF-18">
          <mxGeometry x="0.4754" y="-2" relative="1" as="geometry">
            <mxPoint x="-7" y="-14" as="offset" />
          </mxGeometry>
        </mxCell>
        <mxCell id="N4-iSHMqB769ldHOEbGF-20" value="" style="endArrow=none;html=1;rounded=0;" edge="1" parent="1" target="N4-iSHMqB769ldHOEbGF-17">
          <mxGeometry width="50" height="50" relative="1" as="geometry">
            <mxPoint x="281" y="368" as="sourcePoint" />
            <mxPoint x="429" y="443" as="targetPoint" />
          </mxGeometry>
        </mxCell>
        <mxCell id="N4-iSHMqB769ldHOEbGF-22" value="" style="endArrow=none;html=1;rounded=0;entryX=0.329;entryY=0.043;entryDx=0;entryDy=0;entryPerimeter=0;" edge="1" parent="1" target="N4-iSHMqB769ldHOEbGF-4">
          <mxGeometry width="50" height="50" relative="1" as="geometry">
            <mxPoint x="312" y="363" as="sourcePoint" />
            <mxPoint x="256" y="431" as="targetPoint" />
          </mxGeometry>
        </mxCell>
      </root>
    </mxGraphModel>
  </diagram>
  <diagram id="18a4ChaceiNKvkjMWiaJ" name="Casi d&#39;uso Amministratore">
    <mxGraphModel dx="1363" dy="871" grid="0" gridSize="10" guides="1" tooltips="1" connect="1" arrows="1" fold="1" page="1" pageScale="1" pageWidth="827" pageHeight="1169" math="0" shadow="0">
      <root>
        <mxCell id="0" />
        <mxCell id="1" parent="0" />
        <mxCell id="VY4dKrOajLiE_UtBAHHa-1" value="Amministratore" style="shape=umlActor;verticalLabelPosition=bottom;verticalAlign=top;html=1;outlineConnect=0;" vertex="1" parent="1">
          <mxGeometry x="424" y="285" width="30" height="60" as="geometry" />
        </mxCell>
        <mxCell id="VY4dKrOajLiE_UtBAHHa-2" value="Logout" style="ellipse;whiteSpace=wrap;html=1;" vertex="1" parent="1">
          <mxGeometry x="487" y="187" width="140" height="70" as="geometry" />
        </mxCell>
        <mxCell id="VY4dKrOajLiE_UtBAHHa-3" value="Approva multisala" style="ellipse;whiteSpace=wrap;html=1;" vertex="1" parent="1">
          <mxGeometry x="603" y="285" width="162" height="74" as="geometry" />
        </mxCell>
        <mxCell id="VY4dKrOajLiE_UtBAHHa-4" value="Visualizza multisale da approvare" style="ellipse;whiteSpace=wrap;html=1;" vertex="1" parent="1">
          <mxGeometry x="573" y="395" width="140" height="70" as="geometry" />
        </mxCell>
        <mxCell id="VY4dKrOajLiE_UtBAHHa-5" value="" style="endArrow=none;html=1;rounded=0;" edge="1" parent="1" target="VY4dKrOajLiE_UtBAHHa-2">
          <mxGeometry width="50" height="50" relative="1" as="geometry">
            <mxPoint x="464" y="325" as="sourcePoint" />
            <mxPoint x="584" y="325" as="targetPoint" />
          </mxGeometry>
        </mxCell>
        <mxCell id="VY4dKrOajLiE_UtBAHHa-6" value="" style="endArrow=none;html=1;rounded=0;" edge="1" parent="1" target="VY4dKrOajLiE_UtBAHHa-3">
          <mxGeometry width="50" height="50" relative="1" as="geometry">
            <mxPoint x="473" y="341" as="sourcePoint" />
            <mxPoint x="584" y="365" as="targetPoint" />
          </mxGeometry>
        </mxCell>
        <mxCell id="VY4dKrOajLiE_UtBAHHa-7" value="" style="endArrow=classic;html=1;rounded=0;dashed=1;exitX=0.5;exitY=1;exitDx=0;exitDy=0;" edge="1" parent="1" source="VY4dKrOajLiE_UtBAHHa-3" target="VY4dKrOajLiE_UtBAHHa-4">
          <mxGeometry width="50" height="50" relative="1" as="geometry">
            <mxPoint x="618" y="502" as="sourcePoint" />
            <mxPoint x="692" y="399" as="targetPoint" />
          </mxGeometry>
        </mxCell>
        <mxCell id="VY4dKrOajLiE_UtBAHHa-8" value="include" style="edgeLabel;html=1;align=center;verticalAlign=middle;resizable=0;points=[];" vertex="1" connectable="0" parent="VY4dKrOajLiE_UtBAHHa-7">
          <mxGeometry x="0.4754" y="-2" relative="1" as="geometry">
            <mxPoint x="19" y="-15" as="offset" />
          </mxGeometry>
        </mxCell>
        <mxCell id="VY4dKrOajLiE_UtBAHHa-9" value="Elimina multisala" style="ellipse;whiteSpace=wrap;html=1;" vertex="1" parent="1">
          <mxGeometry x="489" y="510" width="162" height="74" as="geometry" />
        </mxCell>
        <mxCell id="VY4dKrOajLiE_UtBAHHa-10" value="" style="endArrow=classic;html=1;rounded=0;dashed=1;exitX=0.5;exitY=0;exitDx=0;exitDy=0;entryX=0.25;entryY=0.929;entryDx=0;entryDy=0;entryPerimeter=0;" edge="1" parent="1" source="VY4dKrOajLiE_UtBAHHa-9" target="VY4dKrOajLiE_UtBAHHa-4">
          <mxGeometry width="50" height="50" relative="1" as="geometry">
            <mxPoint x="628" y="512" as="sourcePoint" />
            <mxPoint x="628" y="567" as="targetPoint" />
          </mxGeometry>
        </mxCell>
        <mxCell id="VY4dKrOajLiE_UtBAHHa-11" value="include" style="edgeLabel;html=1;align=center;verticalAlign=middle;resizable=0;points=[];" vertex="1" connectable="0" parent="VY4dKrOajLiE_UtBAHHa-10">
          <mxGeometry x="0.4754" y="-2" relative="1" as="geometry">
            <mxPoint x="2" y="13" as="offset" />
          </mxGeometry>
        </mxCell>
        <mxCell id="VY4dKrOajLiE_UtBAHHa-12" value="" style="endArrow=none;html=1;rounded=0;" edge="1" parent="1" target="VY4dKrOajLiE_UtBAHHa-9">
          <mxGeometry width="50" height="50" relative="1" as="geometry">
            <mxPoint x="459" y="376" as="sourcePoint" />
            <mxPoint x="579" y="446" as="targetPoint" />
          </mxGeometry>
        </mxCell>
        <mxCell id="VY4dKrOajLiE_UtBAHHa-13" value="" style="endArrow=none;html=1;rounded=0;entryX=0;entryY=0;entryDx=0;entryDy=0;" edge="1" parent="1" target="VY4dKrOajLiE_UtBAHHa-4">
          <mxGeometry width="50" height="50" relative="1" as="geometry">
            <mxPoint x="488" y="370" as="sourcePoint" />
            <mxPoint x="406" y="434" as="targetPoint" />
          </mxGeometry>
        </mxCell>
        <mxCell id="VY4dKrOajLiE_UtBAHHa-14" value="Inserisci categoria film" style="ellipse;whiteSpace=wrap;html=1;" vertex="1" parent="1">
          <mxGeometry x="236" y="203" width="140" height="70" as="geometry" />
        </mxCell>
        <mxCell id="VY4dKrOajLiE_UtBAHHa-15" value="Inserisci novità film" style="ellipse;whiteSpace=wrap;html=1;" vertex="1" parent="1">
          <mxGeometry x="119" y="303" width="140" height="70" as="geometry" />
        </mxCell>
        <mxCell id="VY4dKrOajLiE_UtBAHHa-16" value="" style="endArrow=none;html=1;rounded=0;entryX=0.643;entryY=1;entryDx=0;entryDy=0;entryPerimeter=0;" edge="1" parent="1" target="VY4dKrOajLiE_UtBAHHa-14">
          <mxGeometry width="50" height="50" relative="1" as="geometry">
            <mxPoint x="413" y="318" as="sourcePoint" />
            <mxPoint x="538" y="264" as="targetPoint" />
          </mxGeometry>
        </mxCell>
        <mxCell id="VY4dKrOajLiE_UtBAHHa-17" value="" style="endArrow=none;html=1;rounded=0;entryX=1;entryY=0.5;entryDx=0;entryDy=0;" edge="1" parent="1" target="VY4dKrOajLiE_UtBAHHa-15">
          <mxGeometry width="50" height="50" relative="1" as="geometry">
            <mxPoint x="393" y="336" as="sourcePoint" />
            <mxPoint x="548" y="274" as="targetPoint" />
          </mxGeometry>
        </mxCell>
        <mxCell id="VY4dKrOajLiE_UtBAHHa-18" value="Elimina utente" style="ellipse;whiteSpace=wrap;html=1;" vertex="1" parent="1">
          <mxGeometry x="187" y="422" width="120" height="80" as="geometry" />
        </mxCell>
        <mxCell id="VY4dKrOajLiE_UtBAHHa-19" value="" style="endArrow=none;html=1;rounded=0;exitX=1;exitY=0;exitDx=0;exitDy=0;" edge="1" parent="1" source="VY4dKrOajLiE_UtBAHHa-18">
          <mxGeometry width="50" height="50" relative="1" as="geometry">
            <mxPoint x="440" y="522" as="sourcePoint" />
            <mxPoint x="398" y="372" as="targetPoint" />
          </mxGeometry>
        </mxCell>
        <mxCell id="VY4dKrOajLiE_UtBAHHa-20" value="Visualizza utenti registrati MoviePlanet" style="ellipse;whiteSpace=wrap;html=1;" vertex="1" parent="1">
          <mxGeometry x="337" y="494" width="133" height="88" as="geometry" />
        </mxCell>
        <mxCell id="VY4dKrOajLiE_UtBAHHa-21" value="" style="endArrow=classic;html=1;rounded=0;dashed=1;exitX=1;exitY=1;exitDx=0;exitDy=0;entryX=0.042;entryY=0.325;entryDx=0;entryDy=0;entryPerimeter=0;" edge="1" parent="1" source="VY4dKrOajLiE_UtBAHHa-18" target="VY4dKrOajLiE_UtBAHHa-20">
          <mxGeometry width="50" height="50" relative="1" as="geometry">
            <mxPoint x="580" y="520" as="sourcePoint" />
            <mxPoint x="653" y="475" as="targetPoint" />
          </mxGeometry>
        </mxCell>
        <mxCell id="VY4dKrOajLiE_UtBAHHa-22" value="include" style="edgeLabel;html=1;align=center;verticalAlign=middle;resizable=0;points=[];" vertex="1" connectable="0" parent="VY4dKrOajLiE_UtBAHHa-21">
          <mxGeometry x="0.4754" y="-2" relative="1" as="geometry">
            <mxPoint x="-36" y="5" as="offset" />
          </mxGeometry>
        </mxCell>
        <mxCell id="VY4dKrOajLiE_UtBAHHa-23" value="" style="endArrow=none;html=1;rounded=0;exitX=0.5;exitY=0;exitDx=0;exitDy=0;" edge="1" parent="1" source="VY4dKrOajLiE_UtBAHHa-20">
          <mxGeometry width="50" height="50" relative="1" as="geometry">
            <mxPoint x="299" y="444" as="sourcePoint" />
            <mxPoint x="419" y="382" as="targetPoint" />
          </mxGeometry>
        </mxCell>
        <mxCell id="VY4dKrOajLiE_UtBAHHa-24" value="Elimina spettatore" style="ellipse;whiteSpace=wrap;html=1;" vertex="1" parent="1">
          <mxGeometry x="41" y="545" width="120" height="80" as="geometry" />
        </mxCell>
        <mxCell id="VY4dKrOajLiE_UtBAHHa-25" value="Elimina esercente" style="ellipse;whiteSpace=wrap;html=1;" vertex="1" parent="1">
          <mxGeometry x="217" y="569" width="120" height="80" as="geometry" />
        </mxCell>
        <mxCell id="FLk_t8Iiha_oVQ3ksfON-1" value="" style="endArrow=block;html=1;rounded=0;exitX=0.5;exitY=0;exitDx=0;exitDy=0;endFill=0;entryX=0;entryY=1;entryDx=0;entryDy=0;" edge="1" parent="1" source="VY4dKrOajLiE_UtBAHHa-24" target="VY4dKrOajLiE_UtBAHHa-18">
          <mxGeometry width="50" height="50" relative="1" as="geometry">
            <mxPoint x="573" y="294" as="sourcePoint" />
            <mxPoint x="200" y="492" as="targetPoint" />
          </mxGeometry>
        </mxCell>
        <mxCell id="FLk_t8Iiha_oVQ3ksfON-2" value="" style="endArrow=block;html=1;rounded=0;entryX=0.5;entryY=1;entryDx=0;entryDy=0;endFill=0;" edge="1" parent="1" source="VY4dKrOajLiE_UtBAHHa-25" target="VY4dKrOajLiE_UtBAHHa-18">
          <mxGeometry width="50" height="50" relative="1" as="geometry">
            <mxPoint x="583" y="304" as="sourcePoint" />
            <mxPoint x="502" y="269" as="targetPoint" />
          </mxGeometry>
        </mxCell>
        <mxCell id="FLk_t8Iiha_oVQ3ksfON-3" value="" style="endArrow=classic;html=1;rounded=0;dashed=1;exitX=0.5;exitY=1;exitDx=0;exitDy=0;entryX=0.5;entryY=0;entryDx=0;entryDy=0;" edge="1" parent="1" source="VY4dKrOajLiE_UtBAHHa-24" target="FLk_t8Iiha_oVQ3ksfON-7">
          <mxGeometry width="50" height="50" relative="1" as="geometry">
            <mxPoint x="120" y="627" as="sourcePoint" />
            <mxPoint x="122" y="688" as="targetPoint" />
          </mxGeometry>
        </mxCell>
        <mxCell id="FLk_t8Iiha_oVQ3ksfON-4" value="include" style="edgeLabel;html=1;align=center;verticalAlign=middle;resizable=0;points=[];" vertex="1" connectable="0" parent="FLk_t8Iiha_oVQ3ksfON-3">
          <mxGeometry x="0.4754" y="-2" relative="1" as="geometry">
            <mxPoint x="-23" y="-17" as="offset" />
          </mxGeometry>
        </mxCell>
        <mxCell id="FLk_t8Iiha_oVQ3ksfON-5" value="" style="endArrow=classic;html=1;rounded=0;dashed=1;exitX=0.5;exitY=1;exitDx=0;exitDy=0;entryX=0.5;entryY=0;entryDx=0;entryDy=0;" edge="1" parent="1" source="VY4dKrOajLiE_UtBAHHa-25" target="FLk_t8Iiha_oVQ3ksfON-8">
          <mxGeometry width="50" height="50" relative="1" as="geometry">
            <mxPoint x="268" y="630" as="sourcePoint" />
            <mxPoint x="272" y="683" as="targetPoint" />
          </mxGeometry>
        </mxCell>
        <mxCell id="FLk_t8Iiha_oVQ3ksfON-6" value="include" style="edgeLabel;html=1;align=center;verticalAlign=middle;resizable=0;points=[];" vertex="1" connectable="0" parent="FLk_t8Iiha_oVQ3ksfON-5">
          <mxGeometry x="0.4754" y="-2" relative="1" as="geometry">
            <mxPoint x="-27" y="-13" as="offset" />
          </mxGeometry>
        </mxCell>
        <mxCell id="FLk_t8Iiha_oVQ3ksfON-7" value="Elimina valutazioni spettatore" style="ellipse;whiteSpace=wrap;html=1;" vertex="1" parent="1">
          <mxGeometry x="36" y="684" width="120" height="80" as="geometry" />
        </mxCell>
        <mxCell id="FLk_t8Iiha_oVQ3ksfON-8" value="Elimina multisale esercente" style="ellipse;whiteSpace=wrap;html=1;" vertex="1" parent="1">
          <mxGeometry x="234" y="703" width="120" height="80" as="geometry" />
        </mxCell>
      </root>
    </mxGraphModel>
  </diagram>
</mxfile>
